<svg width="24" height="24" viewBox="0 0 24 24" fill="none" xmlns="http://www.w3.org/2000/svg">
<g clip-path="url(#clip0_17_33)">
<path d="M20.4 0H3.6C1.61177 0 0 1.61177 0 3.6V20.4C0 22.3882 1.61177 24 3.6 24H20.4C22.3882 24 24 22.3882 24 20.4V3.6C24 1.61177 22.3882 0 20.4 0Z" fill="#F5C518"/>
<path d="M4.875 15.375V8.625H3V15.375H4.875ZM8.85938 8.625L8.4375 11.7656L8.20312 10.0781L7.96875 8.625H5.625V15.375H7.21875V10.9219L7.875 15.375H9.04688L9.65625 10.8281V15.375H11.25V8.625H8.85938ZM12 15.375V8.625H14.9062C15.6094 8.625 16.125 9.14062 16.125 9.79688V14.2031C16.125 14.8594 15.6094 15.375 14.9062 15.375H12ZM14.2031 9.84375L13.7812 9.79688V14.2031C14.0156 14.2031 14.2031 14.1562 14.25 14.0625C14.3438 13.9688 14.3438 13.6875 14.3438 13.2188V10.5938V10.0312L14.2031 9.84375ZM19.6406 10.3125H19.7812C20.4375 10.3125 21 10.8281 21 11.4844V14.2031C21 14.8594 20.4375 15.375 19.7812 15.375H19.6406C19.2656 15.375 18.8906 15.1875 18.6562 14.8594L18.5625 15.2812H16.875V8.625H18.6562V10.7812C18.8906 10.5 19.2656 10.3125 19.6406 10.3125ZM19.2656 13.5938V12L19.2188 11.4844C19.1719 11.3906 19.0312 11.3438 18.9375 11.3438C18.8438 11.3438 18.7031 11.3906 18.6562 11.4844V14.1562C18.7031 14.25 18.8438 14.2969 18.9375 14.2969C19.0312 14.2969 19.2188 14.25 19.2188 14.1562L19.2656 13.5938Z" fill="black"/>
</g>
<defs>
<clipPath id="clip0_17_33">
<rect width="24" height="24" fill="white"/>
</clipPath>
</defs>
</svg>
